<svg width="289" height="210" viewBox="0 0 289 210" fill="none" xmlns="http://www.w3.org/2000/svg">
<path d="M8 133.5L5 144L7.5 142L15.5 134.5L24.5 126.5L34.5 140.5L31 145L26.5 151.5L21 158.5L15 167L8.5 179L4 188L0 197L6.5 199L18.5 202L31 205L47.5 208L62 209L72.5 209.5L88.5 209L99.5 207L114 204L131.5 198.5L144 192.5L158.5 184L171.5 175.5L183.5 164.5L194.5 154L204 143L213 131L219.5 122L226.5 110L232.5 99L239.5 85L243.5 75.5L248 64L252 52.5L255.5 42.5L260.5 32.5L267 23.5L271.5 17L278.5 11.5L283.5 8L288.5 6L264 2.5L239 0.5L215 0L198 1L182 2L168.5 3.5L154.5 6L138 9.5L123.5 14L107.5 20.5L89 30.5L73 41L60 51.5L49.5 62.5L41.5 71L34 82L27 92L22.5 100.5L14 117.5L8 133.5Z" fill="#04D361"/>
<path d="M40 134L31.5 120L46.5 107.5L66.5 93.5L73 103L66.5 109L59 115.5L49.5 124.5L40 134Z" fill="white"/>
<path d="M81 95.5L75.5 87.5L92 76.5L111 66L116 73.5L98.5 84.5L81 95.5Z" fill="white"/>
<path d="M125.5 69L120.5 62L126.5 59L143 51.5L160 45L164 50L159 52L141.5 60L125.5 69Z" fill="white"/>
<path d="M176 40.5L169 43L172 47.5L185 42L196.5 38L209.5 35H204L196 36L188.5 37.5L176 40.5Z" fill="white"/>
</svg>
