<svg width="338" height="96" viewBox="0 0 338 96" fill="none" xmlns="http://www.w3.org/2000/svg">
<path d="M31.2988 79.5078C29.9805 81.0866 28.1169 82.3154 25.708 83.1943C23.2992 84.057 20.6299 84.4883 17.7002 84.4883C14.624 84.4883 11.9222 83.821 9.59473 82.4863C7.28353 81.1354 5.49316 79.1823 4.22363 76.627C2.97038 74.0716 2.32747 71.0687 2.29492 67.6182V65.2012C2.29492 61.653 2.889 58.585 4.07715 55.9971C5.28158 53.3929 7.00684 51.4072 9.25293 50.04C11.5153 48.6566 14.1602 47.9648 17.1875 47.9648C21.403 47.9648 24.6989 48.974 27.0752 50.9922C29.4515 52.9941 30.8594 55.9157 31.2988 59.7568H24.1699C23.8444 57.7223 23.1201 56.2331 21.9971 55.2891C20.8903 54.3451 19.3604 53.873 17.4072 53.873C14.917 53.873 13.0208 54.8089 11.7188 56.6807C10.4167 58.5524 9.75749 61.3356 9.74121 65.0303V67.3008C9.74121 71.028 10.4492 73.8438 11.8652 75.748C13.2812 77.6523 15.3564 78.6045 18.0908 78.6045C20.8415 78.6045 22.8027 78.0186 23.9746 76.8467V70.7188H17.3096V65.3232H31.2988V79.5078ZM44.2383 84H37.1582V57.584H44.2383V84ZM36.7432 50.748C36.7432 49.6901 37.0931 48.8193 37.793 48.1357C38.5091 47.4521 39.4775 47.1104 40.6982 47.1104C41.9027 47.1104 42.863 47.4521 43.5791 48.1357C44.2952 48.8193 44.6533 49.6901 44.6533 50.748C44.6533 51.8223 44.2871 52.7012 43.5547 53.3848C42.8385 54.0684 41.8864 54.4102 40.6982 54.4102C39.5101 54.4102 38.5498 54.0684 37.8174 53.3848C37.1012 52.7012 36.7432 51.8223 36.7432 50.748ZM58.5205 51.0898V57.584H63.0371V62.7598H58.5205V75.9434C58.5205 76.9199 58.7077 77.6198 59.082 78.043C59.4564 78.4661 60.1725 78.6777 61.2305 78.6777C62.0117 78.6777 62.7035 78.6208 63.3057 78.5068V83.8535C61.9222 84.2767 60.498 84.4883 59.0332 84.4883C54.0853 84.4883 51.5625 81.9899 51.4648 76.9932V62.7598H47.6074V57.584H51.4648V51.0898H58.5205ZM96.3623 84H89.0381V68.7656H74.7559V84H67.4316V48.4531H74.7559V62.8574H89.0381V48.4531H96.3623V84ZM118.14 81.3145C116.398 83.4303 113.989 84.4883 110.913 84.4883C108.081 84.4883 105.916 83.6745 104.419 82.0469C102.938 80.4193 102.181 78.0348 102.148 74.8936V57.584H109.204V74.6494C109.204 77.4001 110.457 78.7754 112.964 78.7754C115.356 78.7754 117 77.9453 117.896 76.2852V57.584H124.976V84H118.335L118.14 81.3145ZM154.102 71.0361C154.102 75.2679 153.198 78.5719 151.392 80.9482C149.585 83.3083 147.062 84.4883 143.823 84.4883C140.959 84.4883 138.672 83.3896 136.963 81.1924L136.646 84H130.298V46.5H137.354V59.9521C138.981 58.0479 141.121 57.0957 143.774 57.0957C146.997 57.0957 149.52 58.2839 151.343 60.6602C153.182 63.0202 154.102 66.3486 154.102 70.6455V71.0361ZM147.046 70.5234C147.046 67.8542 146.623 65.9092 145.776 64.6885C144.93 63.4515 143.669 62.833 141.992 62.833C139.746 62.833 138.2 63.7526 137.354 65.5918V76.0166C138.216 77.8721 139.779 78.7998 142.041 78.7998C144.32 78.7998 145.817 77.6768 146.533 75.4307C146.875 74.3564 147.046 72.7207 147.046 70.5234ZM192.773 69.4736H178.711V84H171.387V48.4531H194.531V54.3857H178.711V63.5654H192.773V69.4736ZM205.762 84H198.682V57.584H205.762V84ZM198.267 50.748C198.267 49.6901 198.617 48.8193 199.316 48.1357C200.033 47.4521 201.001 47.1104 202.222 47.1104C203.426 47.1104 204.386 47.4521 205.103 48.1357C205.819 48.8193 206.177 49.6901 206.177 50.748C206.177 51.8223 205.811 52.7012 205.078 53.3848C204.362 54.0684 203.41 54.4102 202.222 54.4102C201.034 54.4102 200.073 54.0684 199.341 53.3848C198.625 52.7012 198.267 51.8223 198.267 50.748ZM218.091 57.584L218.311 60.6357C220.199 58.2757 222.729 57.0957 225.903 57.0957C228.703 57.0957 230.786 57.9176 232.153 59.5615C233.521 61.2054 234.22 63.6631 234.253 66.9346V84H227.197V67.1055C227.197 65.6081 226.872 64.5257 226.221 63.8584C225.57 63.1748 224.487 62.833 222.974 62.833C220.988 62.833 219.499 63.6794 218.506 65.3721V84H211.45V57.584H218.091ZM238.525 70.5967C238.525 66.4788 239.445 63.1992 241.284 60.7578C243.14 58.3164 245.671 57.0957 248.877 57.0957C251.449 57.0957 253.573 58.056 255.249 59.9766V46.5H262.329V84H255.957L255.615 81.1924C253.857 83.3896 251.595 84.4883 248.828 84.4883C245.719 84.4883 243.221 83.2676 241.333 80.8262C239.461 78.3685 238.525 74.9587 238.525 70.5967ZM245.581 71.1094C245.581 73.5833 246.012 75.4795 246.875 76.7979C247.738 78.1162 248.991 78.7754 250.635 78.7754C252.816 78.7754 254.354 77.8558 255.249 76.0166V65.5918C254.37 63.7526 252.848 62.833 250.684 62.833C247.282 62.833 245.581 65.5918 245.581 71.1094ZM279.956 84.4883C276.082 84.4883 272.925 83.3001 270.483 80.9238C268.058 78.5475 266.846 75.3818 266.846 71.4268V70.7432C266.846 68.0902 267.358 65.722 268.384 63.6387C269.409 61.5391 270.858 59.9277 272.729 58.8047C274.618 57.6654 276.766 57.0957 279.175 57.0957C282.788 57.0957 285.628 58.235 287.695 60.5137C289.779 62.7923 290.82 66.0231 290.82 70.2061V73.0869H273.999C274.227 74.8122 274.91 76.1956 276.05 77.2373C277.205 78.279 278.662 78.7998 280.42 78.7998C283.138 78.7998 285.262 77.8151 286.792 75.8457L290.259 79.7275C289.201 81.2249 287.769 82.3968 285.962 83.2432C284.155 84.0732 282.153 84.4883 279.956 84.4883ZM279.15 62.8086C277.751 62.8086 276.611 63.2806 275.732 64.2246C274.87 65.1686 274.316 66.5195 274.072 68.2773H283.887V67.7158C283.854 66.1533 283.431 64.9489 282.617 64.1025C281.803 63.2399 280.648 62.8086 279.15 62.8086ZM309.692 64.2002C308.732 64.07 307.886 64.0049 307.153 64.0049C304.484 64.0049 302.734 64.9082 301.904 66.7148V84H294.849V57.584H301.514L301.709 60.7334C303.125 58.3083 305.086 57.0957 307.593 57.0957C308.374 57.0957 309.106 57.2015 309.79 57.4131L309.692 64.2002Z" fill="#3A3A3A"/>
<path d="M269.941 32.4988L269.213 35.0549L269.82 34.568L271.761 32.7422L273.945 30.7948L276.371 34.2029L275.522 35.2983L274.43 36.8807L273.095 38.5847L271.64 40.6539L270.062 43.5752L268.971 45.7661L268 47.957L269.577 48.4439L272.489 49.1742L275.522 49.9045L279.525 50.6348L283.043 50.8783L285.591 51L289.473 50.8783L292.142 50.3914L295.66 49.6611L299.906 48.3222L302.939 46.8616L306.458 44.7924L309.612 42.7232L312.523 40.0453L315.192 37.4893L317.497 34.8115L319.681 31.8902L321.258 29.6993L322.957 26.778L324.412 24.1002L326.111 20.6921L327.081 18.3795L328.173 15.58L329.144 12.7804L329.993 10.3461L331.206 7.91169L332.783 5.72076L333.875 4.13842L335.574 2.79952L336.787 1.94749L338 1.46062L332.055 0.608592L325.99 0.121718L320.166 0L316.042 0.243437L312.159 0.486874L308.884 0.852029L305.487 1.46062L301.484 2.31265L297.965 3.40811L294.083 4.99045L289.594 7.42482L285.712 9.98091L282.558 12.537L280.01 15.2148L278.069 17.284L276.25 19.9618L274.551 22.3962L273.459 24.4654L271.397 28.6038L269.941 32.4988Z" fill="#04D361"/>
<path d="M277.705 32.6205L275.643 29.2124L279.282 26.1695L284.135 22.7614L285.712 25.074L284.135 26.5346L282.315 28.117L280.01 30.3079L277.705 32.6205Z" fill="white"/>
<path d="M287.653 23.2482L286.319 21.3007L290.322 18.6229L294.932 16.0668L296.146 17.8926L291.899 20.5704L287.653 23.2482Z" fill="white"/>
<path d="M298.451 16.7971L297.237 15.0931L298.693 14.3628L302.697 12.537L306.821 10.9547L307.792 12.1718L306.579 12.6587L302.333 14.6062L298.451 16.7971Z" fill="white"/>
<path d="M310.704 9.8592L309.005 10.4678L309.733 11.5633L312.887 10.2244L315.678 9.2506L318.832 8.52029H317.497L315.556 8.76373L313.737 9.12889L310.704 9.8592Z" fill="white"/>
</svg>
