<svg width="40" height="40" viewBox="0 0 40 40" fill="none" xmlns="http://www.w3.org/2000/svg">
<path d="M33.8696 13.8696C33.8696 16.998 31.6754 22.154 27.348 29.1931C24.1837 34.3405 20.9741 38.6837 20.942 38.7274L20 40L19.058 38.7274C19.026 38.6837 15.8164 34.3405 12.6521 29.1931C8.32469 22.154 6.13047 16.998 6.13047 13.8696C6.13039 6.22227 12.352 0 20 0C27.648 0 33.8696 6.22227 33.8696 13.8696Z" fill="#04D361"/>
<path d="M27.931 13.6546C27.931 18.0282 24.3735 21.5864 19.9999 21.5864C15.6263 21.5864 12.0689 18.0281 12.0689 13.6546C12.0689 9.2818 15.6264 5.72351 19.9999 5.72351C24.3734 5.72351 27.931 9.2818 27.931 13.6546Z" fill="white"/>
<path d="M33.8696 13.8696C33.8696 16.998 31.6754 22.154 27.348 29.1931C24.1837 34.3405 20.9741 38.6837 20.942 38.7274L20 40V0C27.648 0 33.8696 6.22227 33.8696 13.8696Z" fill="#0BC45E"/>
<path d="M27.931 13.6546C27.931 18.0282 24.3735 21.5864 19.9999 21.5864V5.72351C24.3736 5.72351 27.931 9.2818 27.931 13.6546Z" fill="#DBDBDB"/>
</svg>
