<svg width="518" height="543" viewBox="0 0 518 543" fill="none" xmlns="http://www.w3.org/2000/svg">
<g clip-path="url(#clip0)">
<path d="M200.38 543C311.047 543 400.76 527.123 400.76 507.537C400.76 487.952 311.047 472.075 200.38 472.075C89.7131 472.075 0 487.952 0 507.537C0 527.123 89.7131 543 200.38 543Z" fill="#3F3D56"/>
<path d="M322.167 392.365C430.322 392.365 518 304.531 518 196.183C518 87.834 430.322 0 322.167 0C214.011 0 126.333 87.834 126.333 196.183C126.333 304.531 214.011 392.365 322.167 392.365Z" fill="#3F3D56"/>
<path opacity="0.05" d="M322.167 358.138C411.453 358.138 483.833 285.628 483.833 196.183C483.833 106.737 411.453 34.2276 322.167 34.2276C232.881 34.2276 160.5 106.737 160.5 196.183C160.5 285.628 232.881 358.138 322.167 358.138Z" fill="black"/>
<path opacity="0.05" d="M322.167 328.919C395.345 328.919 454.667 269.491 454.667 196.183C454.667 122.874 395.345 63.4463 322.167 63.4463C248.989 63.4463 189.667 122.874 189.667 196.183C189.667 269.491 248.989 328.919 322.167 328.919Z" fill="black"/>
<path opacity="0.05" d="M322.167 291.352C374.634 291.352 417.167 248.743 417.167 196.183C417.167 143.622 374.634 101.013 322.167 101.013C269.7 101.013 227.167 143.622 227.167 196.183C227.167 248.743 269.7 291.352 322.167 291.352Z" fill="black"/>
<path d="M128.068 213.74C128.068 213.74 112.672 257.155 119.514 272.579C126.357 288.003 137.192 302.856 137.192 302.856C137.192 302.856 133.2 216.596 128.068 213.74Z" fill="#D0CDE1"/>
<path opacity="0.1" d="M128.068 213.74C128.068 213.74 112.672 257.155 119.514 272.579C126.357 288.003 137.192 302.856 137.192 302.856C137.192 302.856 133.2 216.596 128.068 213.74Z" fill="black"/>
<path d="M138.903 314.281C138.903 314.281 137.762 325.135 137.192 325.706C136.622 326.277 137.762 327.42 137.192 329.133C136.622 330.847 136.051 333.132 137.192 333.703C138.332 334.275 130.919 384.545 130.919 384.545C130.919 384.545 112.672 408.538 120.085 446.241L122.366 484.515C122.366 484.515 140.043 485.657 140.043 479.373C140.043 479.373 138.903 471.947 138.903 468.52C138.903 465.092 141.754 465.092 140.043 463.378C138.332 461.665 138.332 460.522 138.332 460.522C138.332 460.522 141.183 458.237 140.613 457.666C140.043 457.095 145.745 416.535 145.745 416.535C145.745 416.535 152.018 410.252 152.018 406.824V403.397C152.018 403.397 154.869 395.97 154.869 395.399C154.869 394.828 170.266 359.981 170.266 359.981L176.538 385.116L183.381 421.105C183.381 421.105 186.802 453.667 193.645 466.235C193.645 466.235 205.62 507.365 205.62 506.222C205.62 505.08 225.579 502.224 225.008 497.082C224.438 491.941 213.033 419.963 213.033 419.963L215.885 313.138L138.903 314.281Z" fill="#2F2E41"/>
<path d="M123.506 481.659C123.506 481.659 108.11 511.935 118.374 513.078C128.638 514.22 132.63 514.22 137.192 509.65C139.686 507.152 144.736 503.8 148.803 501.274C151.212 499.801 153.158 497.679 154.418 495.149C155.679 492.619 156.201 489.785 155.927 486.971C155.626 484.176 154.584 481.873 152.018 481.659C145.175 481.087 137.192 474.804 137.192 474.804L123.506 481.659Z" fill="#2F2E41"/>
<path d="M208.472 503.937C208.472 503.937 193.075 534.214 203.339 535.357C213.604 536.499 217.595 536.499 222.157 531.929C224.651 529.431 229.702 526.078 233.768 523.553C236.177 522.08 238.124 519.958 239.384 517.428C240.644 514.898 241.167 512.063 240.893 509.249C240.592 506.455 239.549 504.152 236.983 503.937C230.141 503.366 222.157 497.082 222.157 497.082L208.472 503.937Z" fill="#2F2E41"/>
<path d="M192.199 164.193C205.438 164.193 216.17 153.442 216.17 140.18C216.17 126.917 205.438 116.166 192.199 116.166C178.96 116.166 168.228 126.917 168.228 140.18C168.228 153.442 178.96 164.193 192.199 164.193Z" fill="#FFB8B8"/>
<path d="M176.789 148.07C176.789 148.07 159.667 179.63 158.298 179.63C156.928 179.63 189.117 189.922 189.117 189.922C189.117 189.922 198.02 159.733 199.39 156.989L176.789 148.07Z" fill="#FFB8B8"/>
<path d="M203.054 182.606C203.054 182.606 168.84 163.755 165.418 164.326C161.997 164.897 125.502 196.888 126.072 210.027C126.642 223.165 131.204 244.873 131.204 244.873C131.204 244.873 132.915 305.426 136.336 305.997C139.758 306.569 135.766 316.851 136.907 316.851C138.047 316.851 216.74 316.851 217.31 315.138C217.88 313.424 203.054 182.606 203.054 182.606Z" fill="#D0CDE1"/>
<path d="M222.157 318.28C222.157 318.28 232.992 351.412 223.868 350.27C214.744 349.127 210.752 321.707 210.752 321.707L222.157 318.28Z" fill="#FFB8B8"/>
<path d="M193.075 180.607C193.075 180.607 171.976 185.177 175.398 213.74C178.819 242.303 185.092 270.865 185.092 270.865L206.191 317.137L208.472 325.706L223.868 321.707L212.463 255.441C212.463 255.441 208.472 184.606 203.339 182.321C200.103 180.939 196.584 180.351 193.075 180.607Z" fill="#D0CDE1"/>
<path opacity="0.1" d="M180.245 270.009L206.476 316.851L184.376 267.492L180.245 270.009Z" fill="black"/>
<path d="M216.064 133.109L216.143 131.274L219.787 132.182C219.748 131.593 219.581 131.02 219.3 130.501C219.018 129.983 218.627 129.532 218.154 129.179L222.035 128.962C218.778 124.325 214.617 120.398 209.803 117.417C204.988 114.437 199.621 112.465 194.025 111.62C185.629 110.401 176.281 112.165 170.523 118.407C167.731 121.435 165.976 125.285 164.728 129.213C162.429 136.447 161.961 145.072 166.754 150.952C171.626 156.929 180.136 158.1 187.803 158.839C190.501 159.099 193.328 159.342 195.828 158.293C196.106 155.421 195.739 152.522 194.753 149.81C194.343 148.971 194.147 148.042 194.183 147.108C194.523 144.823 197.566 144.248 199.851 144.556C202.137 144.865 204.885 145.337 206.387 143.584C207.421 142.376 207.36 140.617 207.498 139.032C207.871 134.715 216.024 134.014 216.064 133.109Z" fill="#2F2E41"/>
<path d="M363.087 512.418C378.512 512.418 391.017 499.891 391.017 484.438C391.017 468.985 378.512 456.458 363.087 456.458C347.662 456.458 335.157 468.985 335.157 484.438C335.157 499.891 347.662 512.418 363.087 512.418Z" fill="#04D361"/>
<path d="M35.0746 502.657C50.4997 502.657 63.0043 490.13 63.0043 474.678C63.0043 459.225 50.4997 446.698 35.0746 446.698C19.6494 446.698 7.14478 459.225 7.14478 474.678C7.14478 490.13 19.6494 502.657 35.0746 502.657Z" fill="#04D361"/>
<path d="M35.0746 457.76C46.1951 457.76 55.2101 448.729 55.2101 437.588C55.2101 426.448 46.1951 417.417 35.0746 417.417C23.9541 417.417 14.9392 426.448 14.9392 437.588C14.9392 448.729 23.9541 457.76 35.0746 457.76Z" fill="#04D361"/>
<path d="M35.0746 420.67C42.9665 420.67 49.3642 414.261 49.3642 406.355C49.3642 398.449 42.9665 392.04 35.0746 392.04C27.1826 392.04 20.7849 398.449 20.7849 406.355C20.7849 414.261 27.1826 420.67 35.0746 420.67Z" fill="#04D361"/>
</g>
<defs>
<clipPath id="clip0">
<rect width="518" height="543" fill="white"/>
</clipPath>
</defs>
</svg>
